<svg xmlns="http://www.w3.org/2000/svg" width="1254" height="1254" viewBox="0 0 1254 1254"><g id="compact-emblem"><path d="M180 627C290 415 515 360 710 455L620 535C460 485 345 520 270 627 345 734 460 769 620 719L710 799C515 894 290 839 180 627Z" fill="#182329"/><path d="M215 627Q410 500 650 545" fill="none" stroke="#638b98" stroke-width="25"/><path d="M215 627Q410 754 650 709" fill="none" stroke="#638b98" stroke-width="25"/></g><g id="arrow-1" transform="rotate(-17 280 627)"><path d="M280 627H970" stroke="#182329" stroke-width="54"/><path d="M920 545L1095 627 920 709 975 640 890 627 975 614Z" fill="#182329"/><path d="M980 590L1065 627 980 664 1010 633Z" fill="#c3c7c1"/></g><g id="arrow-2"><path d="M280 627H1010" stroke="#182329" stroke-width="58"/><path d="M960 545L1135 627 960 709 1015 640 930 627 1015 614Z" fill="#182329"/><path d="M1020 590L1105 627 1020 664 1050 633Z" fill="#638b98"/></g><g id="arrow-3" transform="rotate(17 280 627)"><path d="M280 627H970" stroke="#182329" stroke-width="54"/><path d="M920 545L1095 627 920 709 975 640 890 627 975 614Z" fill="#182329"/><path d="M980 590L1065 627 980 664 1010 633Z" fill="#c3c7c1"/></g></svg>
